<svg width="1280" height="640" viewBox="0 0 1280 640" fill="none" xmlns="http://www.w3.org/2000/svg">
<rect width="1280" height="640" fill="url(#paint0_linear)"/>
<rect x="270" y="236" width="739" height="168" rx="24" fill="#323232"/>
<rect x="286" y="252" width="707" height="136" rx="16" fill="#444444"/>
<rect x="302" y="268" width="292" height="104" rx="8" fill="#939393" fill-opacity="0.16"/>
<rect x="318" y="280" width="76" height="80" rx="6" fill="#323232" fill-opacity="0.4"/>
<path d="M341.256 345H328.951V293.812H341.256V345ZM361.322 306.961L361.709 311.426C364.334 307.98 367.955 306.258 372.572 306.258C376.533 306.258 379.486 307.441 381.431 309.809C383.4 312.176 384.42 315.738 384.49 320.496V345H372.607V320.988C372.607 319.066 372.221 317.66 371.447 316.77C370.674 315.855 369.267 315.398 367.228 315.398C364.908 315.398 363.185 316.312 362.06 318.141V345H350.213V306.961H361.322Z" fill="#FAFAFA"/>
<path d="M423.282 334.312C423.282 333.305 422.755 332.496 421.7 331.887C420.645 331.277 418.641 330.645 415.688 329.988C412.735 329.332 410.298 328.477 408.376 327.422C406.454 326.344 404.989 325.043 403.981 323.52C402.973 321.996 402.469 320.25 402.469 318.281C402.469 314.789 403.911 311.918 406.794 309.668C409.676 307.395 413.45 306.258 418.114 306.258C423.13 306.258 427.161 307.395 430.208 309.668C433.255 311.941 434.778 314.93 434.778 318.633H422.895C422.895 315.586 421.29 314.062 418.079 314.062C416.837 314.062 415.794 314.414 414.95 315.117C414.106 315.797 413.684 316.652 413.684 317.684C413.684 318.738 414.2 319.594 415.231 320.25C416.262 320.906 417.903 321.445 420.153 321.867C422.426 322.289 424.419 322.793 426.13 323.379C431.848 325.348 434.708 328.875 434.708 333.961C434.708 337.43 433.161 340.254 430.067 342.434C426.997 344.613 423.012 345.703 418.114 345.703C414.856 345.703 411.95 345.117 409.395 343.945C406.841 342.773 404.848 341.18 403.419 339.164C401.989 337.148 401.274 335.027 401.274 332.801H412.348C412.395 334.559 412.981 335.848 414.106 336.668C415.231 337.465 416.673 337.863 418.43 337.863C420.048 337.863 421.255 337.535 422.051 336.879C422.872 336.223 423.282 335.367 423.282 334.312ZM455.231 297.504V306.961H461.489V315.188H455.231V332.59C455.231 334.02 455.489 335.016 456.004 335.578C456.52 336.141 457.539 336.422 459.063 336.422C460.235 336.422 461.219 336.352 462.016 336.211V344.684C459.883 345.363 457.657 345.703 455.336 345.703C451.258 345.703 448.246 344.742 446.301 342.82C444.356 340.898 443.383 337.98 443.383 334.066V315.188H438.532V306.961H443.383V297.504H455.231ZM488.762 345C488.34 344.227 487.965 343.09 487.637 341.59C485.457 344.332 482.41 345.703 478.496 345.703C474.91 345.703 471.863 344.625 469.355 342.469C466.848 340.289 465.594 337.559 465.594 334.277C465.594 330.152 467.117 327.035 470.164 324.926C473.211 322.816 477.641 321.762 483.453 321.762H487.109V319.758C487.109 316.266 485.598 314.52 482.574 314.52C479.762 314.52 478.355 315.902 478.355 318.668H466.508C466.508 314.988 468.066 312 471.184 309.703C474.324 307.406 478.32 306.258 483.172 306.258C488.023 306.258 491.855 307.441 494.668 309.809C497.48 312.176 498.922 315.422 498.992 319.547V336.387C499.039 339.879 499.578 342.551 500.609 344.402V345H488.762ZM481.344 337.266C482.82 337.266 484.039 336.949 485 336.316C485.984 335.684 486.688 334.969 487.109 334.172V328.09H483.664C479.539 328.09 477.477 329.941 477.477 333.645C477.477 334.723 477.84 335.602 478.566 336.281C479.293 336.938 480.219 337.266 481.344 337.266ZM517.617 306.961L518.004 311.426C520.629 307.98 524.25 306.258 528.867 306.258C532.828 306.258 535.781 307.441 537.726 309.809C539.695 312.176 540.715 315.738 540.785 320.496V345H528.902V320.988C528.902 319.066 528.515 317.66 527.742 316.77C526.968 315.855 525.562 315.398 523.523 315.398C521.203 315.398 519.48 316.312 518.355 318.141V345H506.507V306.961H517.617ZM562.327 297.504V306.961H568.585V315.188H562.327V332.59C562.327 334.02 562.585 335.016 563.101 335.578C563.617 336.141 564.636 336.422 566.159 336.422C567.331 336.422 568.316 336.352 569.113 336.211V344.684C566.98 345.363 564.753 345.703 562.433 345.703C558.355 345.703 555.343 344.742 553.398 342.82C551.452 340.898 550.48 337.98 550.48 334.066V315.188H545.628V306.961H550.48V297.504H562.327Z" fill="#FAFAFA"/>
<rect x="610" y="268" width="367" height="104" rx="8" fill="#939393" fill-opacity="0.16"/>
<path d="M664.758 331.395C664.758 329.59 664.114 328.184 662.825 327.176C661.559 326.168 659.321 325.125 656.11 324.047C652.899 322.969 650.274 321.926 648.235 320.918C641.602 317.66 638.285 313.184 638.285 307.488C638.285 304.652 639.106 302.156 640.746 300C642.41 297.82 644.754 296.133 647.778 294.938C650.801 293.719 654.2 293.109 657.973 293.109C661.653 293.109 664.946 293.766 667.852 295.078C670.782 296.391 673.055 298.266 674.672 300.703C676.289 303.117 677.098 305.883 677.098 309H664.793C664.793 306.914 664.149 305.297 662.86 304.148C661.594 303 659.871 302.426 657.692 302.426C655.489 302.426 653.743 302.918 652.453 303.902C651.188 304.863 650.555 306.094 650.555 307.594C650.555 308.906 651.258 310.102 652.664 311.18C654.071 312.234 656.543 313.336 660.082 314.484C663.621 315.609 666.528 316.828 668.801 318.141C674.332 321.328 677.098 325.723 677.098 331.324C677.098 335.801 675.41 339.316 672.035 341.871C668.66 344.426 664.032 345.703 658.149 345.703C654 345.703 650.239 344.965 646.864 343.488C643.512 341.988 640.981 339.949 639.27 337.371C637.582 334.77 636.739 331.781 636.739 328.406H649.114C649.114 331.148 649.817 333.176 651.223 334.488C652.653 335.777 654.961 336.422 658.149 336.422C660.188 336.422 661.793 335.988 662.965 335.121C664.16 334.23 664.758 332.988 664.758 331.395ZM702.438 345.703C696.602 345.703 691.879 343.969 688.27 340.5C684.66 337.008 682.855 332.473 682.855 326.895V325.91C682.855 322.02 683.57 318.586 685 315.609C686.453 312.633 688.562 310.336 691.328 308.719C694.094 307.078 697.375 306.258 701.172 306.258C706.516 306.258 710.734 307.922 713.828 311.25C716.922 314.555 718.469 319.172 718.469 325.102V329.707H694.914C695.336 331.84 696.262 333.516 697.691 334.734C699.121 335.953 700.973 336.562 703.246 336.562C706.996 336.562 709.926 335.25 712.035 332.625L717.449 339.023C715.973 341.062 713.875 342.691 711.156 343.91C708.461 345.105 705.555 345.703 702.438 345.703ZM701.102 315.398C697.633 315.398 695.57 317.695 694.914 322.289H706.867V321.375C706.914 319.477 706.434 318.012 705.426 316.98C704.418 315.926 702.977 315.398 701.102 315.398ZM723.031 325.699C723.031 321.855 723.664 318.457 724.929 315.504C726.195 312.551 728.011 310.277 730.379 308.684C732.746 307.066 735.5 306.258 738.64 306.258C742.601 306.258 745.695 307.594 747.922 310.266L748.343 306.961H759.101V343.559C759.101 346.91 758.316 349.816 756.746 352.277C755.199 354.762 752.949 356.66 749.996 357.973C747.043 359.309 743.621 359.977 739.73 359.977C736.941 359.977 734.234 359.449 731.609 358.395C729.007 357.34 727.015 355.969 725.632 354.281L730.59 347.32C732.793 349.922 735.699 351.223 739.308 351.223C744.558 351.223 747.183 348.527 747.183 343.137V341.941C744.91 344.449 742.039 345.703 738.57 345.703C733.929 345.703 730.179 343.934 727.32 340.395C724.461 336.832 723.031 332.074 723.031 326.121V325.699ZM734.914 326.438C734.914 329.555 735.5 332.027 736.672 333.855C737.843 335.66 739.484 336.562 741.593 336.562C744.148 336.562 746.011 335.707 747.183 333.996V318C746.035 316.266 744.195 315.398 741.664 315.398C739.554 315.398 737.902 316.348 736.707 318.246C735.511 320.121 734.914 322.852 734.914 326.438Z" fill="#FAFAFA"/>
<rect x="767" y="280" width="113" height="80" rx="6" fill="#323232" fill-opacity="0.4"/>
<path d="M787.819 306.961L788.205 311.426C790.901 307.98 794.522 306.258 799.069 306.258C803.873 306.258 807.119 308.168 808.807 311.988C811.385 308.168 815.111 306.258 819.986 306.258C827.697 306.258 831.658 310.922 831.869 320.25V345H819.986V320.988C819.986 319.043 819.658 317.625 819.002 316.734C818.346 315.844 817.151 315.398 815.416 315.398C813.072 315.398 811.326 316.441 810.178 318.527L810.213 319.02V345H798.33V321.059C798.33 319.066 798.014 317.625 797.381 316.734C796.748 315.844 795.541 315.398 793.76 315.398C791.486 315.398 789.752 316.441 788.557 318.527V345H776.709V306.961H787.819ZM858.193 345.703C852.357 345.703 847.635 343.969 844.025 340.5C840.416 337.008 838.611 332.473 838.611 326.895V325.91C838.611 322.02 839.326 318.586 840.756 315.609C842.209 312.633 844.318 310.336 847.084 308.719C849.849 307.078 853.131 306.258 856.928 306.258C862.271 306.258 866.49 307.922 869.584 311.25C872.678 314.555 874.224 319.172 874.224 325.102V329.707H850.67C851.092 331.84 852.017 333.516 853.447 334.734C854.877 335.953 856.728 336.562 859.002 336.562C862.752 336.562 865.681 335.25 867.791 332.625L873.205 339.023C871.728 341.062 869.631 342.691 866.912 343.91C864.217 345.105 861.31 345.703 858.193 345.703ZM856.857 315.398C853.389 315.398 851.326 317.695 850.67 322.289H862.623V321.375C862.67 319.477 862.189 318.012 861.181 316.98C860.174 315.926 858.732 315.398 856.857 315.398Z" fill="#FAFAFA"/>
<path d="M900.432 306.961L900.819 311.426C903.444 307.98 907.065 306.258 911.682 306.258C915.643 306.258 918.596 307.441 920.541 309.809C922.51 312.176 923.529 315.738 923.6 320.496V345H911.717V320.988C911.717 319.066 911.33 317.66 910.557 316.77C909.783 315.855 908.377 315.398 906.338 315.398C904.018 315.398 902.295 316.312 901.17 318.141V345H889.322V306.961H900.432ZM945.142 297.504V306.961H951.4V315.188H945.142V332.59C945.142 334.02 945.4 335.016 945.916 335.578C946.431 336.141 947.451 336.422 948.974 336.422C950.146 336.422 951.131 336.352 951.928 336.211V344.684C949.795 345.363 947.568 345.703 945.248 345.703C941.17 345.703 938.158 344.742 936.213 342.82C934.267 340.898 933.295 337.98 933.295 334.066V315.188H928.443V306.961H933.295V297.504H945.142Z" fill="#FAFAFA"/>
<path d="M48.5202 38.4913C48.4609 38.3662 48.3684 38.2607 48.2533 38.1868C48.1382 38.113 48.0051 38.0739 47.8692 38.0739H40.3324L46.353 25.0575C46.4053 24.9447 46.4289 24.8201 46.4215 24.6954C46.4141 24.5706 46.3759 24.4499 46.3107 24.3443C46.2454 24.2388 46.1552 24.1518 46.0483 24.0916C45.9414 24.0314 45.8213 23.9999 45.6993 24H34.1264C33.9869 24 33.8503 24.0413 33.7332 24.1189C33.6161 24.1966 33.5234 24.3073 33.4663 24.4376L24.0633 45.9189C24.0139 46.0317 23.9929 46.1554 24.0021 46.2786C24.0114 46.4019 24.0506 46.5209 24.1162 46.6246C24.1818 46.7284 24.2718 46.8137 24.3778 46.8728C24.4839 46.9318 24.6027 46.9627 24.7234 46.9627H31.7823L28.3565 63.1012C28.3216 63.2649 28.3419 63.436 28.4142 63.5863C28.4865 63.7367 28.6064 63.8576 28.7544 63.9291C28.9024 64.0007 29.0698 64.0187 29.2291 63.9802C29.3884 63.9418 29.5303 63.8491 29.6315 63.7174L48.4375 39.2733C48.5215 39.164 48.5737 39.0327 48.5884 38.8944C48.603 38.7562 48.5794 38.6165 48.5202 38.4913Z" fill="white"/>
<defs>
<linearGradient id="paint0_linear" x1="640" y1="0" x2="640" y2="640" gradientUnits="userSpaceOnUse">
<stop stop-color="#37D490"/>
<stop offset="0.520833" stop-color="#37D4A3"/>
<stop offset="1" stop-color="#12BB9E"/>
</linearGradient>
</defs>
</svg>
